<svg xmlns="http://www.w3.org/2000/svg" enable-background="new 0 0 100 100" viewBox="0 0 100 100"><path d="M95,53c0-9.12-5.34-17.02-13.06-20.74C81.04,18.77,69.66,8,56,8c-8.36,0-16.09,3.95-20.98,10.64C33.75,18.23,32.4,18,31,18
	c-7.17,0-13,5.83-13,13v1.29C10.06,36.12,5,44.11,5,53c0,12.68,10.32,23,23,23h4.07l-7.78,12.97c-0.38,0.62-0.39,1.39-0.03,2.02
	C24.61,91.61,25.28,92,26,92h48c0.72,0,1.39-0.39,1.74-1.01c0.36-0.63,0.35-1.4-0.03-2.02L67.93,76H72C84.68,76,95,65.68,95,53z
	 M70.47,88H29.53L50,53.89L70.47,88z M65.53,72L51.71,48.97C51.35,48.37,50.7,48,50,48s-1.35,0.37-1.71,0.97L34.47,72H28
	C17.52,72,9,63.48,9,53c0-7.72,4.62-14.62,11.76-17.56C21.51,35.13,22,34.4,22,33.59V31c0-4.96,4.04-9,9-9s9,4.04,9,9v1
	c0,1.1,0.9,2,2,2s2-0.9,2-2v-1c0-4.31-2.12-8.13-5.36-10.5C42.79,15.15,49.14,12,56,12c10.94,0,20.15,8.17,21.75,18.73
	C75.91,30.25,73.98,30,72,30c-1.1,0-2,0.9-2,2c0,1.1,0.9,2,2,2c10.48,0,19,8.52,19,19c0,10.48-8.52,19-19,19H65.53z M50,64
	c1.1,0,2,0.9,2,2v8c0,1.1-0.9,2-2,2s-2-0.9-2-2v-8C48,64.9,48.9,64,50,64z M51.41,80.59C51.79,80.96,52,81.47,52,82
	c0,0.27-0.05,0.52-0.15,0.77c-0.1,0.24-0.25,0.46-0.44,0.64C51.03,83.79,50.53,84,50,84s-1.04-0.21-1.41-0.59
	c-0.19-0.18-0.34-0.4-0.44-0.64C48.05,82.52,48,82.27,48,82c0-0.53,0.21-1.04,0.59-1.41c0.09-0.1,0.19-0.18,0.3-0.25
	s0.22-0.14,0.35-0.19c0.12-0.05,0.24-0.09,0.37-0.11C50.26,79.91,50.95,80.12,51.41,80.59z"/></svg>